<svg width="203" height="204" viewBox="0 0 203 204" fill="none" xmlns="http://www.w3.org/2000/svg">
<path d="M170.52 0H32.48C14.5418 0 0 14.6138 0 32.6408V171.364C0 189.391 14.5418 204.005 32.48 204.005H170.52C188.458 204.005 203 189.391 203 171.364V32.6408C203 14.6138 188.458 0 170.52 0Z" fill="#38539A"/>
<path d="M95.5786 141.91L86.0481 139.144C85.0482 138.863 84.4857 137.816 84.767 136.816L106.093 63.3535C106.375 62.3535 107.421 61.7911 108.421 62.0723L117.952 64.8377C118.952 65.1189 119.514 66.1657 119.233 67.1657L97.9066 140.629C97.6097 141.629 96.5785 142.207 95.5786 141.91ZM77.7675 124.38L84.5639 117.131C85.2826 116.365 85.2357 115.146 84.4389 114.443L70.2837 101.991L84.4389 89.5389C85.2357 88.8358 85.2982 87.6172 84.5639 86.8516L77.7675 79.6022C77.0644 78.8522 75.877 78.8054 75.1115 79.5241L52.5976 100.616C51.8008 101.35 51.8008 102.616 52.5976 103.35L75.1115 124.458C75.877 125.177 77.0644 125.146 77.7675 124.38ZM128.889 124.474L151.402 103.366C152.199 102.632 152.199 101.366 151.402 100.632L128.889 79.5084C128.139 78.8054 126.951 78.8366 126.232 79.5866L119.436 86.836C118.717 87.6016 118.764 88.8202 119.561 89.5233L133.716 101.991L119.561 114.443C118.764 115.146 118.702 116.365 119.436 117.131L126.232 124.38C126.936 125.146 128.123 125.177 128.889 124.474Z" fill="white"/>
</svg>
