<svg width="203" height="204" viewBox="0 0 203 204" fill="none" xmlns="http://www.w3.org/2000/svg">
<path d="M170.52 0H32.48C14.5418 0 0 14.6138 0 32.6408V171.364C0 189.391 14.5418 204.005 32.48 204.005H170.52C188.458 204.005 203 189.391 203 171.364V32.6408C203 14.6138 188.458 0 170.52 0Z" fill="#38539A"/>
<path d="M97.4395 97.4375C94.9194 99.9577 94.9194 104.042 97.4395 106.56C99.9577 109.081 104.044 109.081 106.562 106.56C109.083 104.04 109.083 99.9556 106.562 97.4375C104.042 94.9194 99.9577 94.9194 97.4395 97.4375ZM102 52C74.3851 52 52 74.3851 52 102C52 129.615 74.3851 152 102 152C129.615 152 152 129.615 152 102C152 74.3851 129.615 52 102 52ZM127.431 81.8488L114.131 110.952C113.488 112.359 112.359 113.488 110.952 114.131L81.8508 127.431C78.4939 128.966 75.0343 125.506 76.5685 122.149L89.871 93.0464C90.5143 91.6389 91.643 90.5103 93.0504 89.8669L122.151 76.5665C125.508 75.0343 128.966 78.4919 127.431 81.8488Z" fill="white"/>
</svg>
