<svg width="203" height="203" viewBox="0 0 203 203" fill="none" xmlns="http://www.w3.org/2000/svg">
<path d="M170.52 0H32.48C14.5418 0 0 14.5418 0 32.48V170.52C0 188.458 14.5418 203 32.48 203H170.52C188.458 203 203 188.458 203 170.52V32.48C203 14.5418 188.458 0 170.52 0Z" fill="#38539A"/>
<path d="M101.5 102C106.675 102 110.875 96.4062 110.875 89.5C110.875 82.5937 106.675 77 101.5 77C96.325 77 92.125 82.5937 92.125 89.5C92.125 96.4062 96.325 102 101.5 102Z" fill="white"/>
<path d="M126.206 107.062C124.987 85.8875 120.156 72.6437 115.1 64.4437C112.169 59.7062 109.188 56.6937 106.856 54.8375C105.946 54.1049 104.978 53.4465 103.962 52.8687C103.668 52.7014 103.368 52.5451 103.062 52.4C102.581 52.1437 102.045 52.0066 101.5 52C100.916 52.0081 100.344 52.1652 99.8375 52.4562C99.5359 52.6124 99.2399 52.7792 98.95 52.9562C97.9421 53.569 96.983 54.2585 96.0812 55.0187C93.7687 56.9437 90.8062 60.0375 87.8937 64.8312C82.8625 73.0937 78.0375 86.2875 76.8062 107.056L67.45 118.469L67.425 118.5C65.2078 121.271 63.9999 124.714 64 128.262V148.875C64 149.531 64.2064 150.17 64.5899 150.702C64.9734 151.234 65.5146 151.632 66.1368 151.84C66.759 152.047 67.4307 152.053 68.0568 151.858C68.6828 151.662 69.2315 151.275 69.625 150.75L76.6562 141.375C77.6937 139.987 79.2812 138.875 81.3562 137.812C82.6937 137.137 83.9437 136.612 85.2625 136.056L86.5 135.531C90.875 138.206 96.1875 139.5 101.5 139.5C106.812 139.5 112.125 138.206 116.5 135.531C116.919 135.719 117.325 135.881 117.725 136.05C119.056 136.612 120.306 137.137 121.644 137.812C123.719 138.875 125.306 139.987 126.344 141.375L133.375 150.75C133.769 151.275 134.317 151.662 134.943 151.858C135.569 152.053 136.241 152.047 136.863 151.84C137.485 151.632 138.027 151.234 138.41 150.702C138.794 150.17 139 149.531 139 148.875V128.262C139 124.714 137.792 121.271 135.575 118.5L126.206 107.062ZM126.5 117.281V117.625C126.5 123.037 124.725 127.531 121.812 131C122.725 131.4 123.637 131.812 124.469 132.244C126.906 133.475 129.469 135.119 131.344 137.619L132.75 139.5V128.262C132.75 126.139 132.03 124.079 130.706 122.419L126.5 117.281ZM81.1875 131C78.275 127.531 76.5 123.037 76.5 117.625V117.287L72.2937 122.412C70.9691 124.074 70.2485 126.137 70.25 128.262V139.5L71.6562 137.625C73.5312 135.125 76.0937 133.475 78.5312 132.244C79.3625 131.819 80.275 131.4 81.1875 131ZM101.556 58.7062C101.95 58.9562 102.431 59.2937 102.969 59.725C104.744 61.1375 107.237 63.6062 109.781 67.725C114.856 75.975 120.25 90.9812 120.25 117.625C120.25 122.987 117.912 126.875 114.356 129.456C110.981 131.912 106.381 133.25 101.5 133.25C96.6187 133.25 92.0187 131.912 88.6437 129.456C85.0812 126.869 82.75 122.987 82.75 117.625C82.75 91.4875 88.125 76.4625 93.2312 68.075C95.7875 63.8875 98.2937 61.3125 100.081 59.825C100.644 59.35 101.144 58.9875 101.556 58.7062Z" fill="white"/>
<path d="M110.743 141.756C107.743 142.338 104.618 142.625 101.5 142.625C98.3746 142.625 95.2559 142.338 92.2559 141.756L98.9996 150.75C99.2907 151.138 99.6681 151.453 100.102 151.67C100.536 151.887 101.014 152 101.5 152C101.985 152 102.463 151.887 102.897 151.67C103.331 151.453 103.709 151.138 104 150.75L110.743 141.756Z" fill="white"/>
</svg>
