<svg width="203" height="203" viewBox="0 0 203 203" fill="none" xmlns="http://www.w3.org/2000/svg">
<path d="M170.52 0H32.48C14.5418 0 0 14.5418 0 32.48V170.52C0 188.458 14.5418 203 32.48 203H170.52C188.458 203 203 188.458 203 170.52V32.48C203 14.5418 188.458 0 170.52 0Z" fill="#38539A"/>
<path d="M148.128 85.4944L119.597 81.3348L106.845 55.4787C104.56 50.8699 97.9394 50.8111 95.6348 55.4787L82.8826 81.3348L54.351 85.4944C49.2346 86.2366 47.1837 92.5441 50.8945 96.1574L71.5362 116.272L66.6539 144.686C65.7754 149.822 71.1849 153.669 75.7154 151.268L101.24 137.851L126.764 151.268C131.295 153.65 136.704 149.822 135.825 144.686L130.943 116.272L151.585 96.1574C155.296 92.5441 153.245 86.2366 148.128 85.4944ZM120.886 112.991L125.514 140.019L101.24 127.267L76.9652 140.019L81.5936 112.991L61.9476 93.8527L89.0926 89.9078L101.24 65.3015L113.387 89.9078L140.532 93.8527L120.886 112.991Z" fill="white"/>
</svg>
