<svg width="203" height="203" viewBox="0 0 203 203" fill="none" xmlns="http://www.w3.org/2000/svg">
<path d="M170.52 0H32.48C14.5418 0 0 14.5418 0 32.48V170.52C0 188.458 14.5418 203 32.48 203H170.52C188.458 203 203 188.458 203 170.52V32.48C203 14.5418 188.458 0 170.52 0Z" fill="#38539A"/>
<path d="M58.2492 51.0056L52 57.2548L65.7483 76.5088C66.3271 77.3196 67.0914 77.9802 67.9773 78.4357C68.8633 78.8912 69.8453 79.1283 70.8415 79.1272H71.2789C72.1006 79.1265 72.9143 79.2879 73.6735 79.6021C74.4327 79.9163 75.1225 80.3771 75.7034 80.9582L92.4201 97.675L76.0658 114.26C73.2686 113.437 70.3181 113.277 67.4481 113.792C64.5782 114.308 61.8679 115.485 59.5322 117.231C57.1965 118.976 55.2997 121.242 53.9923 123.848C52.6848 126.455 52.0027 129.33 52 132.246C52.0037 134.933 52.585 137.587 53.7042 140.03C54.8235 142.472 56.4547 144.646 58.4874 146.403C60.52 148.16 62.9066 149.46 65.4853 150.214C68.0641 150.968 70.7749 151.159 73.434 150.774C76.093 150.389 78.6383 149.437 80.8973 147.982C83.1563 146.528 85.0763 144.605 86.5271 142.343C87.978 140.082 88.9258 137.535 89.3064 134.875C89.687 132.216 89.4915 129.505 88.7331 126.928L105.319 110.573L111.368 116.623L109.462 122.334C109.096 123.435 109.043 124.617 109.31 125.746C109.577 126.875 110.153 127.907 110.974 128.727L131.409 149.162C131.988 149.745 132.677 150.207 133.435 150.522C134.193 150.838 135.006 151 135.827 151C136.649 151 137.462 150.838 138.22 150.522C138.978 150.207 139.667 149.745 140.246 149.162L150.157 139.251C150.739 138.672 151.201 137.984 151.517 137.226C151.832 136.467 151.994 135.654 151.994 134.833C151.994 134.012 151.832 133.199 151.517 132.44C151.201 131.682 150.739 130.994 150.157 130.415L129.722 109.98C128.902 109.159 127.869 108.583 126.74 108.316C125.611 108.049 124.43 108.101 123.329 108.467L117.617 110.373L111.618 104.374L128.366 87.8574C131.144 88.599 134.056 88.6927 136.876 88.1312C139.696 87.5697 142.35 86.368 144.632 84.6187C146.915 82.8695 148.765 80.6194 150.04 78.0421C151.315 75.4647 151.982 72.6289 151.988 69.7533C151.988 68.0723 151.769 66.4412 151.351 64.8977L137.977 78.2773L126.991 76.0026L124.716 65.0226L138.096 51.643C134.913 50.7872 131.561 50.7856 128.377 51.6384C125.194 52.4911 122.291 54.168 119.962 56.5001C117.633 58.8322 115.96 61.737 115.112 64.9217C114.264 68.1065 114.27 71.4586 115.13 74.6402L98.6319 91.3757L81.9526 74.709C80.7806 73.5373 80.122 71.948 80.1216 70.2908V69.8471C80.1217 68.8519 79.8842 67.8712 79.4287 66.9864C78.9733 66.1016 78.3131 65.3383 77.5032 64.7602L58.2492 51.0056ZM118.529 117.535C118.82 117.244 119.165 117.013 119.544 116.856C119.924 116.698 120.331 116.617 120.742 116.617C121.153 116.617 121.56 116.698 121.939 116.856C122.319 117.013 122.664 117.244 122.954 117.535L141.164 135.752C141.733 136.341 142.048 137.13 142.041 137.949C142.034 138.769 141.706 139.552 141.126 140.132C140.547 140.711 139.763 141.04 138.944 141.047C138.125 141.054 137.335 140.739 136.746 140.17L118.529 121.96C118.238 121.669 118.008 121.324 117.85 120.945C117.693 120.565 117.612 120.158 117.612 119.747C117.612 119.336 117.693 118.929 117.85 118.55C118.008 118.17 118.238 117.825 118.529 117.535ZM70.7477 119.747L73.6911 121.26L76.997 121.422L78.7905 124.203L81.5714 125.997L81.7339 129.302L83.2462 132.246L81.7339 135.189L81.5714 138.495L78.7905 140.289L76.997 143.069L73.6911 143.232L70.7477 144.744L67.8043 143.232L64.4985 143.069L62.705 140.289L59.924 138.495L59.7616 135.189L58.2492 132.246L59.7616 129.302L59.924 125.997L62.705 124.203L64.4985 121.422L67.8043 121.26L70.7477 119.747Z" fill="white"/>
</svg>
